<?xml version="1.0" encoding="UTF-8"?>
<svg version="1.1" xmlns="http://www.w3.org/2000/svg" width="1400" height="1400">
<path d="M0 0 C0.7785371 -0.00282738 1.5570742 -0.00565475 2.35920334 -0.00856781 C6.49972602 -0.02344731 10.64021503 -0.03274098 14.78076172 -0.03710938 C18.11160555 -0.0414414 21.44218262 -0.05514165 24.77294922 -0.078125 C54.99937686 -0.2821642 85.01281621 1.197459 114.9609375 5.515625 C116.07156052 5.67094696 116.07156052 5.67094696 117.20462036 5.82940674 C186.41278194 15.51526078 254.04744512 34.85924319 317.25585938 64.80566406 C320.31278403 66.25128838 323.37864686 67.67673368 326.4453125 69.1015625 C339.89232545 75.39849269 352.85456672 82.30562899 365.6953125 89.75585938 C367.92728777 91.03993832 370.1709538 92.29505115 372.4296875 93.53125 C402.29669501 109.88324947 430.71131375 129.85084987 457.2109375 151.203125 C458.60505859 152.32267578 458.60505859 152.32267578 460.02734375 153.46484375 C470.16181448 161.68158348 480.08685968 170.17228507 489.73144531 178.95922852 C491.21771594 180.30427709 492.71225875 181.64038955 494.22290039 182.95800781 C502.48927551 190.21445529 510.19740381 198.03882716 517.96166992 205.82348633 C520.39975382 208.26694422 522.84315539 210.70499307 525.28710938 213.14257812 C526.85969583 214.71582521 528.43197214 216.28938237 530.00390625 217.86328125 C530.72386276 218.58121353 531.44381927 219.29914581 532.18559265 220.03883362 C536.72679461 224.60084345 541.0218541 229.31716231 545.2109375 234.203125 C546.22143322 235.35914313 547.23296725 236.51425552 548.24609375 237.66796875 C559.71209538 250.79905608 570.94068532 264.10772788 581.2109375 278.203125 C582.12211893 279.43119508 583.03359625 280.65904566 583.9453125 281.88671875 C604.69187157 310.0189044 623.36362132 339.63199254 639.76806641 370.49365234 C641.21002731 373.20141581 642.66902108 375.89952346 644.12890625 378.59765625 C683.15012533 451.32431017 706.35673307 532.25402633 720.2109375 647.203125 C720.34193092 648.86581169 720.34193092 648.86581169 720.47557068 650.56208801 C721.16751447 660.0516793 721.3900692 669.48128638 721.4140625 678.9921875 C721.41830357 680.15999315 721.41830357 680.15999315 721.42263031 681.35139084 C721.43750981 685.49191352 721.44680348 689.63240253 721.45117188 693.77294922 C721.4555039 697.10379305 721.46920415 700.43437012 721.4921875 703.76513672 C721.6962267 733.99156436 720.2166035 764.00500371 715.8984375 793.953125 C715.79488953 794.69354034 715.69134155 795.43395569 715.58465576 796.19680786 C705.89880172 865.40496944 686.55481931 933.03963262 656.60839844 996.24804688 C655.16277412 999.30497153 653.73732882 1002.37083436 652.3125 1005.4375 C646.01556981 1018.88451295 639.10843351 1031.84675422 631.65820312 1044.6875 C630.37412418 1046.91947527 629.11901135 1049.1631413 627.8828125 1051.421875 C611.53081303 1081.28888251 591.56321263 1109.70350125 570.2109375 1136.203125 C569.09138672 1137.59724609 569.09138672 1137.59724609 567.94921875 1139.01953125 C559.73247902 1149.15400198 551.24177743 1159.07904718 542.45483398 1168.72363281 C541.10978541 1170.20990344 539.77367295 1171.70444625 538.45605469 1173.21508789 C531.19960721 1181.48146301 523.37523534 1189.18959131 515.59057617 1196.95385742 C513.14711828 1199.39194132 510.70906943 1201.83534289 508.27148438 1204.27929688 C506.69823729 1205.85188333 505.12468013 1207.42415964 503.55078125 1208.99609375 C502.83284897 1209.71605026 502.11491669 1210.43600677 501.37522888 1211.17778015 C496.81321905 1215.71898211 492.09690019 1220.0140416 487.2109375 1224.203125 C486.05491937 1225.21362072 484.89980698 1226.22515475 483.74609375 1227.23828125 C470.61500642 1238.70428288 457.30633462 1249.93287282 443.2109375 1260.203125 C441.98286742 1261.11430643 440.75501684 1262.02578375 439.52734375 1262.9375 C411.3951581 1283.68405907 381.78206996 1302.35580882 350.92041016 1318.76025391 C348.21264669 1320.20221481 345.51453904 1321.66120858 342.81640625 1323.12109375 C270.08975233 1362.14231283 189.16003617 1385.34892057 74.2109375 1399.203125 C72.54825081 1399.33411842 72.54825081 1399.33411842 70.85197449 1399.46775818 C61.3623832 1400.15970197 51.93277612 1400.3822567 42.421875 1400.40625 C41.6433379 1400.40907738 40.8648008 1400.41190475 40.06267166 1400.41481781 C35.92214898 1400.42969731 31.78165997 1400.43899098 27.64111328 1400.44335938 C24.31026945 1400.4476914 20.97969238 1400.46139165 17.64892578 1400.484375 C-12.57750186 1400.6884142 -42.59094121 1399.208791 -72.5390625 1394.890625 C-73.27947784 1394.78707703 -74.01989319 1394.68352905 -74.78274536 1394.57684326 C-143.99090694 1384.89098922 -211.62557012 1365.54700681 -274.83398438 1335.60058594 C-277.89090903 1334.15496162 -280.95677186 1332.72951632 -284.0234375 1331.3046875 C-297.47045045 1325.00775731 -310.43269172 1318.10062101 -323.2734375 1310.65039062 C-325.50541277 1309.36631168 -327.7490788 1308.11119885 -330.0078125 1306.875 C-359.87482001 1290.52300053 -388.28943875 1270.55540013 -414.7890625 1249.203125 C-415.71847656 1248.45675781 -416.64789063 1247.71039062 -417.60546875 1246.94140625 C-427.73993948 1238.72466652 -437.66498468 1230.23396493 -447.30957031 1221.44702148 C-448.79584094 1220.10197291 -450.29038375 1218.76586045 -451.80102539 1217.44824219 C-460.06740051 1210.19179471 -467.77552881 1202.36742284 -475.53979492 1194.58276367 C-477.97787882 1192.13930578 -480.42128039 1189.70125693 -482.86523438 1187.26367188 C-484.43782083 1185.69042479 -486.01009714 1184.11686763 -487.58203125 1182.54296875 C-488.30198776 1181.82503647 -489.02194427 1181.10710419 -489.76371765 1180.36741638 C-494.30491961 1175.80540655 -498.5999791 1171.08908769 -502.7890625 1166.203125 C-503.79955822 1165.04710687 -504.81109225 1163.89199448 -505.82421875 1162.73828125 C-517.29022038 1149.60719392 -528.51881032 1136.29852212 -538.7890625 1122.203125 C-539.70024393 1120.97505492 -540.61172125 1119.74720434 -541.5234375 1118.51953125 C-562.26999657 1090.3873456 -580.94174632 1060.77425746 -597.34619141 1029.91259766 C-598.78815231 1027.20483419 -600.24714608 1024.50672654 -601.70703125 1021.80859375 C-640.72825033 949.08193983 -663.93485807 868.15222367 -677.7890625 753.203125 C-677.92005592 751.54043831 -677.92005592 751.54043831 -678.05369568 749.84416199 C-678.74563947 740.3545707 -678.9681942 730.92496362 -678.9921875 721.4140625 C-678.99501488 720.6355254 -678.99784225 719.8569883 -679.00075531 719.05485916 C-679.01563481 714.91433648 -679.02492848 710.77384747 -679.02929688 706.63330078 C-679.0336289 703.30245695 -679.04732915 699.97187988 -679.0703125 696.64111328 C-679.2743517 666.41468564 -677.7947285 636.40124629 -673.4765625 606.453125 C-673.32124054 605.34250198 -673.32124054 605.34250198 -673.16278076 604.20944214 C-663.47692672 535.00128056 -644.13294431 467.36661738 -614.18652344 404.15820312 C-612.74089912 401.10127847 -611.31545382 398.03541564 -609.890625 394.96875 C-603.59369481 381.52173705 -596.68655851 368.55949578 -589.23632812 355.71875 C-587.95224918 353.48677473 -586.69713635 351.2431087 -585.4609375 348.984375 C-569.10893803 319.11736749 -549.14133763 290.70274875 -527.7890625 264.203125 C-527.04269531 263.27371094 -526.29632812 262.34429687 -525.52734375 261.38671875 C-517.31060402 251.25224802 -508.81990243 241.32720282 -500.03295898 231.68261719 C-498.68791041 230.19634656 -497.35179795 228.70180375 -496.03417969 227.19116211 C-488.77773221 218.92478699 -480.95336034 211.21665869 -473.16870117 203.45239258 C-470.72524328 201.01430868 -468.28719443 198.57090711 -465.84960938 196.12695312 C-464.27636229 194.55436667 -462.70280513 192.98209036 -461.12890625 191.41015625 C-460.41097397 190.69019974 -459.69304169 189.97024323 -458.95335388 189.22846985 C-454.39134405 184.68726789 -449.67502519 180.3922084 -444.7890625 176.203125 C-443.63304437 175.19262928 -442.47793198 174.18109525 -441.32421875 173.16796875 C-428.19313142 161.70196712 -414.88445962 150.47337718 -400.7890625 140.203125 C-399.56099242 139.29194357 -398.33314184 138.38046625 -397.10546875 137.46875 C-368.9732831 116.72219093 -339.36019496 98.05044118 -308.49853516 81.64599609 C-305.79077169 80.20403519 -303.09266404 78.74504142 -300.39453125 77.28515625 C-227.66787733 38.26393717 -146.73816117 15.05732943 -31.7890625 1.203125 C-30.68060471 1.11579605 -29.57214691 1.0284671 -28.43009949 0.93849182 C-18.9405082 0.24654803 -9.51090112 0.0239933 0 0 Z " fill="#FEFEFE" transform="translate(678.7890625,-0.203125)"/>
<path d="M0 0 C2.58839859 0.01826417 5.17643608 0.02050858 7.76489258 0.02026367 C53.99863578 0.11322623 53.99863578 0.11322623 67.1574707 12.57299805 C74.32991916 20.32016192 77.22764409 25.01631252 76.92700195 35.70581055 C76.16220181 45.63712835 72.03437237 51.55558875 64.6574707 58.20581055 C51.69429256 68.59221016 32.31773187 70.3128724 16.15356445 70.40893555 C14.96470642 70.41938904 14.96470642 70.41938904 13.75183105 70.43005371 C11.19948986 70.44738435 8.64736834 70.45377607 6.0949707 70.45581055 C5.22397736 70.45681763 4.35298401 70.45782471 3.45559692 70.4588623 C-10.31704134 70.44809067 -23.79981211 69.94114178 -37.3425293 67.20581055 C-38.01380859 67.07190918 -38.68508789 66.93800781 -39.37670898 66.80004883 C-53.27621949 63.84613431 -69.4150639 56.96684025 -77.8425293 45.01831055 C-80.33228908 40.06112066 -80.16404842 34.57783126 -79.3425293 29.20581055 C-77.17437029 23.59627577 -73.26788002 19.56165747 -68.3425293 16.20581055 C-67.61420898 15.67342773 -66.88588867 15.14104492 -66.13549805 14.5925293 C-59.33445449 10.10164988 -52.30560116 7.69165849 -44.5300293 5.39331055 C-43.07330811 4.95849365 -43.07330811 4.95849365 -41.5871582 4.51489258 C-27.78013131 0.63887527 -14.23565432 -0.10345874 0 0 Z " fill="#020102" transform="translate(707.342529296875,750.794189453125)"/>
<path d="M0 0 C0.88300781 0.52335937 1.76601562 1.04671875 2.67578125 1.5859375 C4.36299314 2.59468027 6.04549818 3.61134723 7.72265625 4.63671875 C9.6832294 5.81037232 11.66425594 6.8785638 13.6875 7.9375 C25.896019 15.5390307 30.78012988 28.86453228 33.98022461 42.43725586 C38.86648105 65.94131984 35.62789893 89.41955905 25 111 C24.64719971 111.74652832 24.29439941 112.49305664 23.9309082 113.26220703 C22.97274113 115.28874571 21.99038057 117.30154432 21 119.3125 C20.68289063 119.97572266 20.36578125 120.63894531 20.0390625 121.32226562 C17.33705631 126.79653017 14.08003557 131.02943999 9.625 135.25 C6.55570673 138.4654501 4.14636301 141.9298878 1.6484375 145.59765625 C0.57631737 147.16010621 -0.54222442 148.692017 -1.7109375 150.18359375 C-3.19291567 151.90061349 -3.19291567 151.90061349 -3 154 C-0.59396468 155.76603596 1.82047719 157.4258728 4.3125 159.0625 C14.07651385 165.62569219 22.9077653 172.93163404 31.58203125 180.875 C33.9144765 182.9248388 36.31809434 184.77790291 38.8125 186.625 C42.82066554 189.68087089 45.41665279 192.66664339 48 197 C48 197.99 48 198.98 48 200 C43.68426603 199.52937472 41.80503725 197.00774975 38.9375 193.9375 C33.73998865 188.5415572 28.16155741 184.26999121 22 180 C19.488864 178.20266481 16.99268897 176.38531015 14.5 174.5625 C13.86449219 174.09851807 13.22898437 173.63453613 12.57421875 173.15649414 C7.63238088 169.52305097 2.87422336 165.71734169 -1.828125 161.77734375 C-5.13044783 158.86809183 -5.13044783 158.86809183 -9.26171875 158.0234375 C-10.06222656 158.13945312 -10.86273437 158.25546875 -11.6875 158.375 C-12.49574219 158.48585938 -13.30398438 158.59671875 -14.13671875 158.7109375 C-15.05904297 158.85402344 -15.05904297 158.85402344 -16 159 C-14.8496621 155.5489863 -14.45154314 155.50687092 -11.5 153.75 C-6.77767632 150.35530469 -4.29342375 145.9537653 -1.49365234 140.99707031 C0.67765746 137.16708265 2.95240329 133.61059981 5.63476562 130.12011719 C24.14750228 105.93694387 30.8747939 76.84427882 26.9375 46.875 C25.70116433 38.73179879 23.43591348 32.00983859 19 25 C18.57074219 24.195625 18.14148437 23.39125 17.69921875 22.5625 C11.71658173 12.11494508 0.03183921 6.72779182 -11 3 C-13.990696 2.21795018 -16.96482406 1.59708379 -20 1 C-20.33 0.67 -20.66 0.34 -21 0 C-38.74413288 -1.33337415 -53.76165031 3.56947771 -67.35546875 14.9765625 C-69.1346802 16.89013088 -70.5650584 18.81672864 -72 21 C-72.90492188 22.31097656 -72.90492188 22.31097656 -73.828125 23.6484375 C-85.25742602 41.15236702 -94.33893583 61.17652702 -97 82 C-97.18433594 83.24523437 -97.36867188 84.49046875 -97.55859375 85.7734375 C-98.86742552 94.9085263 -99.23865383 103.77205195 -99 113 C-99.99 113 -100.98 113 -102 113 C-102.185625 112.2575 -102.37125 111.515 -102.5625 110.75 C-105.01628483 106.05580294 -109.74207208 104.43868333 -114.55078125 102.76171875 C-115.79214844 102.40722656 -117.03351562 102.05273438 -118.3125 101.6875 C-125.23448905 99.64231096 -131.92351804 97.18695406 -138.62036133 94.4987793 C-143.6909922 92.47041048 -148.8008721 90.67085167 -154 89 C-154.7623999 88.7529834 -155.5247998 88.5059668 -156.31030273 88.25146484 C-165.68630104 85.24810104 -174.92807803 82.62369665 -184.66333008 81.11108398 C-189.80452995 80.28842062 -194.68999278 79.0079395 -199.6875 77.5625 C-209.57969109 74.74523107 -219.66994001 73.53554556 -229.8581543 72.34399414 C-231.09863525 72.19567139 -232.33911621 72.04734863 -233.6171875 71.89453125 C-234.72690918 71.76925049 -235.83663086 71.64396973 -236.97998047 71.51489258 C-239.91361657 71.01472778 -242.27219651 70.15636086 -245 69 C-254.21549677 67.39227935 -263.52977134 66.79346353 -272.859375 66.28125 C-277.98847763 65.96652079 -283.08357726 65.37233076 -288.18310547 64.74804688 C-300.30605524 63.29865679 -312.3917073 62.8466968 -324.59375 62.8671875 C-326.03910336 62.86651145 -327.4844566 62.86553893 -328.92980957 62.86428833 C-331.92815252 62.86282929 -334.9264653 62.86490988 -337.92480469 62.86962891 C-341.75542304 62.87536674 -345.58597193 62.87201041 -349.41658783 62.86605644 C-352.38835166 62.86243722 -355.36009907 62.86359497 -358.3318634 62.86618423 C-359.74477649 62.8668476 -361.15769111 62.86604591 -362.57060242 62.86370468 C-364.54120859 62.86115113 -366.51182006 62.86573637 -368.48242188 62.87060547 C-369.59935425 62.87140106 -370.71628662 62.87219666 -371.86706543 62.87301636 C-374.99292097 62.99971307 -377.92525703 63.44170051 -381 64 C-383.2452982 64.17302781 -385.49320276 64.31405766 -387.7421875 64.4296875 C-389.04220703 64.50082764 -390.34222656 64.57196777 -391.68164062 64.64526367 C-392.36460205 64.6821933 -393.04756348 64.71912292 -393.7512207 64.75717163 C-437.97490434 67.21072437 -482.23212607 75.61514157 -525 87 C-525.72687012 87.18884766 -526.45374023 87.37769531 -527.20263672 87.57226562 C-537.84423812 90.36146266 -547.6087134 94.28098687 -557.58300781 98.89111328 C-590.51519155 114 -590.51519155 114 -600 114 C-598.51081373 109.87333926 -596.19156996 108.7026637 -592.375 106.75 C-591.37210938 106.22921875 -590.36921875 105.7084375 -589.3359375 105.171875 C-588.56507813 104.78515625 -587.79421875 104.3984375 -587 104 C-586.6108469 96.74760128 -588.06479402 90.28249419 -589.75 83.25 C-590.00265625 82.1465625 -590.2553125 81.043125 -590.515625 79.90625 C-592.76556677 70.32149806 -595.73939532 61.03300941 -599.296875 51.85546875 C-599.77348708 50.59774243 -600.22067867 49.32854478 -600.640625 48.05078125 C-605.02191731 35.08521273 -615.46898379 25.39108286 -625 16 C-625.61359375 15.3915625 -626.2271875 14.783125 -626.859375 14.15625 C-637.01799007 5.25696738 -651.39137576 2.78888648 -664.55859375 3.4453125 C-674.96421522 4.43588932 -684.46277237 9.19468521 -693 15 C-693.66 15 -694.32 15 -695 15 C-695.24363281 15.54914063 -695.48726562 16.09828125 -695.73828125 16.6640625 C-697.2732329 19.50586154 -699.17596353 21.84759617 -701.1875 24.375 C-711.26879256 37.41993487 -715.44043061 50.34510901 -715.4375 66.75 C-715.43889984 67.49132172 -715.44029968 68.23264343 -715.44174194 68.99642944 C-715.42354449 80.68536371 -714.32448482 91.07063262 -710 102 C-709.56945312 103.14082031 -709.13890625 104.28164063 -708.6953125 105.45703125 C-706.73003141 110.40685411 -704.47367596 115.17428913 -702.015625 119.89575195 C-700.9492264 122.10519656 -700.10311479 124.33698763 -699.25 126.63671875 C-697.09686234 132.06805699 -694.24837632 136.80726249 -691.0625 141.6875 C-690.55009766 142.48994141 -690.03769531 143.29238281 -689.50976562 144.11914062 C-687.15427498 147.78556507 -684.74938673 151.35572264 -682.12109375 154.83203125 C-680 158 -680 158 -680 162 C-682.23828125 163.60546875 -682.23828125 163.60546875 -685.3125 165.1875 C-690.77782512 168.19183077 -695.33422478 171.58137998 -700.078125 175.60546875 C-703.32890367 178.26954271 -706.69009692 180.70674003 -710.125 183.125 C-720.00757671 189.95295016 -720.00757671 189.95295016 -728.9375 197.9375 C-729.618125 198.618125 -730.29875 199.29875 -731 200 C-731.66 200 -732.32 200 -733 200 C-733.34375 197.34765625 -733.34375 197.34765625 -733 194 C-731.19744841 191.83393384 -729.62302428 190.22148498 -727.5 188.4375 C-726.94900635 187.9542627 -726.3980127 187.47102539 -725.83032227 186.97314453 C-722.42143292 184.03814113 -718.94890214 181.52792741 -715.04296875 179.2890625 C-711.42167947 177.00411898 -708.23919014 174.15720297 -704.953125 171.421875 C-701.85092257 168.87774074 -698.70044247 166.41841621 -695.5 164 C-694.5203125 163.2575 -693.540625 162.515 -692.53125 161.75 C-690 160 -690 160 -687 159 C-688.37753386 155.99082409 -690.005868 153.65810197 -692.125 151.125 C-696.05723534 146.16874504 -699.08889322 140.80779498 -702.1484375 135.296875 C-703.61010648 132.69424078 -705.12121129 130.18564219 -706.75 127.6875 C-708.86805137 124.36215935 -710.44995098 120.93716513 -711.97265625 117.3046875 C-712.95098588 115.00344905 -712.95098588 115.00344905 -714.18359375 112.9453125 C-725.07680638 93.87370659 -726.39641561 67.05281498 -721.55712891 46.05566406 C-719.38964084 38.20898149 -715.9828844 31.44080248 -711 25 C-710.28457031 24.05511719 -709.56914063 23.11023438 -708.83203125 22.13671875 C-706.6348034 19.34196594 -704.36129994 16.656983 -702 14 C-701.44441406 13.36320312 -700.88882813 12.72640625 -700.31640625 12.0703125 C-690.39730711 2.12830551 -673.33387322 -4.19454975 -659.5 -4.4375 C-641.74540147 -4.40607964 -625.14257968 4.23349717 -612.51318359 16.41845703 C-602.25749707 27.13745304 -596.15210337 40.09040069 -590.86181641 53.77539062 C-590.16875007 55.56440492 -589.43965591 57.33944113 -588.69921875 59.109375 C-583.49420941 72.0515604 -581.1843248 86.1108639 -582 100 C-572.24827444 96.77996713 -562.86102544 93.10393884 -553.5 88.875 C-544.76625159 84.97032367 -536.43259905 82.31623697 -527.08007812 80.45068359 C-523.3204165 79.63609024 -519.63493514 78.55680393 -515.9375 77.5 C-504.03187473 74.1423964 -492.16121967 71.05236312 -479.96240234 68.95068359 C-476.69941667 68.60230612 -476.69941667 68.60230612 -474 67 C-471.58108882 66.49472056 -469.17270927 66.04272255 -466.73828125 65.625 C-465.99603806 65.49561035 -465.25379486 65.3662207 -464.48905945 65.23291016 C-462.9063978 64.95851911 -461.32336034 64.68628853 -459.73999023 64.41601562 C-457.36622212 64.00920673 -454.99466258 63.5910235 -452.62304688 63.171875 C-444.27415367 61.72326766 -436.08716438 60.62387225 -427.61401367 60.2109375 C-425.01947029 60.16549464 -425.01947029 60.16549464 -423 59 C-421.45144985 58.85948609 -419.89766992 58.77428934 -418.34375 58.71875 C-417.40273438 58.68136719 -416.46171875 58.64398438 -415.4921875 58.60546875 C-414.50476563 58.57066406 -413.51734375 58.53585937 -412.5 58.5 C-410.57281312 58.42987325 -408.64572517 58.35697125 -406.71875 58.28125 C-405.86216797 58.25095703 -405.00558594 58.22066406 -404.12304688 58.18945312 C-401.53940909 58.03272213 -399.00367945 57.78485184 -396.43276978 57.4992218 C-391.2617019 56.97820745 -386.14689893 56.83898426 -380.95263672 56.82299805 C-380.00105682 56.81642685 -379.04947693 56.80985565 -378.06906128 56.80308533 C-374.93926881 56.7834942 -371.80952467 56.77170449 -368.6796875 56.76171875 C-367.59139774 56.75764322 -366.50310799 56.7535677 -365.38183975 56.74936867 C-359.59098761 56.72854077 -353.80015875 56.71424003 -348.00927734 56.70483398 C-343.30666714 56.69608233 -338.60436294 56.67546515 -333.90185547 56.64331055 C-300.73325783 56.42164085 -268.00207664 57.12914414 -235.27566719 62.97198963 C-230.23809351 63.85806775 -225.22242321 64.40458822 -220.125 64.8125 C-212.57857859 65.52781799 -205.68359016 67.37634178 -198.47680664 69.68237305 C-192.88167715 71.46874688 -187.31063175 72.92183142 -181.5625 74.125 C-175.27693744 75.44511163 -169.19422398 77.04389273 -163.08984375 79.0703125 C-160.69890073 79.78971128 -158.41381527 80.34473207 -155.9765625 80.84375 C-149.64998665 82.21140781 -143.56759335 84.31931938 -137.4375 86.375 C-136.25736328 86.76171875 -135.07722656 87.1484375 -133.86132812 87.546875 C-128.40543386 89.36652412 -123.18119474 91.23017935 -118.10571289 93.93994141 C-113.5350748 96.24089336 -108.73771074 98.07333097 -104 100 C-103.98541748 99.28046143 -103.97083496 98.56092285 -103.95581055 97.81958008 C-103.35415982 71.25978297 -103.35415982 71.25978297 -100 61 C-99.71213623 60.05350586 -99.71213623 60.05350586 -99.41845703 59.08789062 C-94.27486398 42.25719757 -85.64284125 27.9202725 -75 14 C-74.24074219 12.98421875 -73.48148438 11.9684375 -72.69921875 10.921875 C-69.48315715 7.44052323 -66.11871989 5.26278404 -62.0625 2.875 C-60.67790987 2.0398504 -59.29378795 1.20392402 -57.91015625 0.3671875 C-57.24395264 -0.02919922 -56.57774902 -0.42558594 -55.89135742 -0.83398438 C-54.17120001 -1.89445576 -52.51433247 -3.05589837 -50.8671875 -4.2265625 C-35.87431939 -13.50008038 -14.01341803 -8.34084966 0 0 Z " fill="#100C0E" transform="translate(1051,320)"/>
<path d="M0 0 C4.49873994 0.49542074 6.56992233 2.03433631 9.8125 5.125 C12.85668372 7.98878765 15.90369189 10.7753144 19.125 13.4375 C22.95747305 16.75897665 25.98364143 20.53844112 29.04296875 24.5703125 C30.99038077 27.08475226 30.99038077 27.08475226 33.46875 29.421875 C47.92789885 44.14878586 54.13704155 66.78388791 60 86 C60.36351562 87.13953125 60.72703125 88.2790625 61.1015625 89.453125 C70.3808962 123.96877746 59.05457541 164.64097425 42.33203125 194.99609375 C36.55495949 204.96535837 29.80296135 214.50817368 22 223 C21.34 223 20.68 223 20 223 C19.72704102 223.59296875 19.45408203 224.1859375 19.17285156 224.796875 C17.27361246 228.36447152 14.50352945 231.06932769 11.75 234 C11.13390869 234.65701904 10.51781738 235.31403809 9.88305664 235.9909668 C5.59227896 240.49277525 1.14268023 244.74629486 -3.5625 248.8125 C-4.13323242 249.30943359 -4.70396484 249.80636719 -5.29199219 250.31835938 C-8.36744902 252.90764275 -11.16325009 254.76395208 -15 256 C-9.79395435 249.63109192 -9.79395435 249.63109192 -6.5625 247.0625 C-3.64283347 244.7125245 -1.37711742 242.10958439 1.05078125 239.265625 C3.13539621 236.84262565 5.28174008 234.48483358 7.4375 232.125 C15.92333161 222.67877867 23.20462071 212.70390552 30 202 C31.03833984 200.36611328 31.03833984 200.36611328 32.09765625 198.69921875 C41.18366538 183.61608232 47.30945304 167.17156045 51 150 C51.34025699 148.70775446 51.68279322 147.41610739 52.02734375 146.125 C57.04258156 126.19344334 57.07747397 103.56447101 51 84 C50.33168614 81.58378834 49.66497534 79.1671326 49 76.75 C48.3411625 74.49769505 47.67480328 72.24757313 47 70 C46.69320312 68.97132813 46.38640625 67.94265625 46.0703125 66.8828125 C42.78161414 56.41877225 38.44359023 47.25613293 31.34765625 38.84765625 C27.82197893 34.57108592 24.57186766 30.0927834 21.30029297 25.62011719 C17.52485969 20.52008061 13.47725116 16.09271437 8.5 12.125 C4.93862521 9.11692414 2.49716283 5.93492325 0 2 C0 1.34 0 0.68 0 0 Z " fill="#0C090B" transform="translate(856,754)"/>
<path d="M0 0 C2.66796875 1.86328125 2.66796875 1.86328125 5.1875 4.3125 C6.44626953 5.51326172 6.44626953 5.51326172 7.73046875 6.73828125 C8.47941406 7.48464844 9.22835937 8.23101563 10 9 C10.56976562 9.51046875 11.13953125 10.0209375 11.7265625 10.546875 C15.93513486 15.349295 15.37198518 24.08150828 15.25 30.06640625 C14.75358186 35.89156281 13.36171757 40.30705383 9.6875 44.875 C5.02677484 48.56022455 1.19216246 50.63191503 -4.91796875 50.33984375 C-9.63226017 49.57034402 -13.47098143 47.85417695 -16.54296875 44.12890625 C-21.82212978 35.93924001 -23.00798444 28.71909212 -22 19 C-19.31441752 9.75659985 -10.45260454 -1.31471116 0 0 Z " fill="#060405" transform="translate(563,669)"/>
<path d="M0 0 C5.83485061 4.01089265 10.99939946 9.79713844 12.37402344 16.94482422 C13.17980157 24.74453374 12.94375303 32.61155775 8 39 C7.34386719 39.88945313 6.68773437 40.77890625 6.01171875 41.6953125 C0.66543104 48.3250786 0.66543104 48.3250786 -3.08203125 49.84375 C-8.06065532 50.23654085 -11.52852644 47.80899762 -15.23828125 44.71875 C-20.23226984 39.84656601 -22.08114582 35.27938994 -22.203125 28.48046875 C-22.22433329 26.71620411 -22.23976439 24.95186241 -22.25 23.1875 C-22.270625 22.31029297 -22.29125 21.43308594 -22.3125 20.52929688 C-22.34618454 14.89976782 -21.74051128 10.9535063 -19 6 C-13.52615814 1.5971272 -7.14479197 -1.59675275 0 0 Z " fill="#050404" transform="translate(877,669)"/>
<path d="M0 0 C1.10988281 0.4021875 2.21976563 0.804375 3.36328125 1.21875 C6.90092827 2.57032571 9.83800498 3.89200332 13 6 C13 6.66 13 7.32 13 8 C11.47246094 7.61908203 11.47246094 7.61908203 9.9140625 7.23046875 C5.28890082 6.09533757 0.6498215 5.02922065 -4 4 C-4.72106934 3.84031738 -5.44213867 3.68063477 -6.18505859 3.51611328 C-27.45964075 -1.11868103 -27.45964075 -1.11868103 -48 2 C-49.78516166 2.19186317 -51.57080447 2.38033895 -53.35864258 2.54541016 C-60.37574382 3.21583894 -65.91867289 4.30612878 -72.08203125 7.9765625 C-74 9 -74 9 -77 9 C-77 8.34 -77 7.68 -77 7 C-53.04119676 -8.20959466 -26.4328155 -9.83198424 0 0 Z " fill="#0B080A" transform="translate(742,716)"/>
<path d="M0 0 C0 0.66 0 1.32 0 2 C-1.04929687 1.9278125 -2.09859375 1.855625 -3.1796875 1.78125 C-13.90230668 1.11301504 -24.61783092 0.86645321 -35.35894775 0.82275391 C-36.85681094 0.81597606 -38.35466298 0.80578218 -39.85247803 0.79199219 C-47.39675006 0.72807372 -54.64396699 0.70767375 -61.99755859 2.66674805 C-64.28685628 3.04773943 -65.80852121 2.70429382 -68 2 C-62.2785275 -2.04338699 -56.77577352 -4.2945332 -50 -6 C-49.38761475 -6.17200928 -48.77522949 -6.34401855 -48.14428711 -6.52124023 C-32.40667162 -10.03501275 -14.44825933 -6.50637743 0 0 Z " fill="#0B080A" transform="translate(752,1000)"/>
<path d="M0 0 C1.65994994 2.93542004 2.29487454 5.20405383 2.484375 8.5625 C2.53368164 9.43616211 2.58298828 10.30982422 2.63378906 11.20996094 C2.67213867 12.13067383 2.71048828 13.05138672 2.75 14 C2.79092773 14.94391602 2.83185547 15.88783203 2.87402344 16.86035156 C3.21908743 27.2158287 1.64348391 36.32414413 -2 46 C-2.25265625 46.77730469 -2.5053125 47.55460937 -2.765625 48.35546875 C-5.02607282 54.81829457 -8.54542903 59.66104272 -12.74609375 65.03125 C-16.76856723 70.32948196 -20.08212436 76.02853358 -23 82 C-23.66 81.67 -24.32 81.34 -25 81 C-24.55269531 80.26136719 -24.10539062 79.52273438 -23.64453125 78.76171875 C-16.31885908 66.46895969 -11.39187815 53.92454884 -6.81884766 40.41674805 C-6.27326324 38.80650948 -5.72085217 37.19856771 -5.16162109 35.59301758 C-1.18697969 24.04284997 -0.59070104 12.10937125 0 0 Z " fill="#E9EAF3" transform="translate(1066,372)"/>
<path d="M0 0 C4.49873994 0.49542074 6.56992233 2.03433631 9.8125 5.125 C11.11574219 6.34896484 11.11574219 6.34896484 12.4453125 7.59765625 C13.28835938 8.39042969 14.13140625 9.18320312 15 10 C16.39055117 11.19368102 17.78591833 12.38179015 19.1875 13.5625 C23.1927524 17.0375255 26.61530521 20.92778908 30 25 C28.35 26.32 26.7 27.64 25 29 C22.37895392 26.45384095 19.98208423 23.97772634 17.6875 21.125 C15.69958458 18.67593806 13.54611371 16.70742723 11.125 14.6875 C6.77538049 10.9828811 3.12283768 6.79160407 0 2 C0 1.34 0 0.68 0 0 Z " fill="#171011" transform="translate(856,754)"/>
<path d="M0 0 C0.495 0.99 0.495 0.99 1 2 C1.33 1.34 1.66 0.68 2 0 C2.99 0 3.98 0 5 0 C4.1875 2.4375 4.1875 2.4375 3 5 C2.01 5.33 1.02 5.66 0 6 C-0.71407136 7.3085581 -1.37667641 8.64586193 -2 10 C-3.93718423 12.4636408 -6.10466525 14.71664939 -8.25 17 C-9.17413696 17.98552856 -9.17413696 17.98552856 -10.11694336 18.9909668 C-14.40772104 23.49277525 -18.85731977 27.74629486 -23.5625 31.8125 C-24.13323242 32.30943359 -24.70396484 32.80636719 -25.29199219 33.31835938 C-28.36744902 35.90764275 -31.16325009 37.76395208 -35 39 C-29.79395435 32.63109192 -29.79395435 32.63109192 -26.5625 30.0625 C-23.64283347 27.7125245 -21.37711742 25.10958439 -18.94921875 22.265625 C-16.86460379 19.84262565 -14.71825992 17.48483358 -12.5625 15.125 C-8.15713117 10.25033071 -4.04273952 5.17735034 0 0 Z " fill="#170E0E" transform="translate(876,971)"/>
<path d="M0 0 C1.69140625 0.93359375 1.69140625 0.93359375 3.5625 2.4375 C4.26117187 2.994375 4.95984375 3.55125 5.6796875 4.125 C6.82824219 5.053125 6.82824219 5.053125 8 6 C8.84820313 6.639375 9.69640625 7.27875 10.5703125 7.9375 C15.69245939 11.85173762 19.7171665 15.41918305 23 21 C23 21.99 23 22.98 23 24 C18.68426603 23.52937472 16.80503725 21.00774975 13.9375 17.9375 C9.37102298 13.14336411 4.56479799 9.31690161 -0.98046875 5.65625 C-1.64691406 5.1096875 -2.31335937 4.563125 -3 4 C-3 3.01 -3 2.02 -3 1 C-2.01 0.67 -1.02 0.34 0 0 Z " fill="#1D1619" transform="translate(1076,496)"/>
<path d="M0 0 C8.88492122 1.31701266 17.47842011 3.98561341 25 9 C25 9.66 25 10.32 25 11 C23.91203125 10.73445312 22.8240625 10.46890625 21.703125 10.1953125 C13.17421909 8.13724831 4.68918817 6.2724052 -4 5 C-4 4.67 -4 4.34 -4 4 C-2.35 3.67 -0.7 3.34 1 3 C0.67 2.01 0.34 1.02 0 0 Z " fill="#1E181A" transform="translate(730,713)"/>
<path d="M0 0 C0 0.99 0 1.98 0 3 C-2.40625 5.04296875 -2.40625 5.04296875 -5.5 7.1875 C-6.5209375 7.90292969 -7.541875 8.61835938 -8.59375 9.35546875 C-9.3878125 9.89816406 -10.181875 10.44085938 -11 11 C-12.32 10.34 -13.64 9.68 -15 9 C-6.07664234 -1.85675182 -6.07664234 -1.85675182 0 0 Z " fill="#0E080A" transform="translate(349,494)"/>
<path d="M0 0 C4.20240011 3.71750779 6.99782679 8.31660979 10 13 C9.67 13.66 9.34 14.32 9 15 C5.1251714 14.88603445 3.1801073 13.56481715 0.5625 10.875 C-0.97265625 8.98828125 -0.97265625 8.98828125 -2 7 C-1.375 3.0625 -1.375 3.0625 0 0 Z " fill="#191115" transform="translate(359,462)"/>
<path d="M0 0 C2.37590142 3.70416126 2.20500286 6.92984573 2.125 11.25 C2.10695313 12.51328125 2.08890625 13.7765625 2.0703125 15.078125 C2.04710937 16.04234375 2.02390625 17.0065625 2 18 C1.34 18.33 0.68 18.66 0 19 C-0.33 19.99 -0.66 20.98 -1 22 C-1.66 22 -2.32 22 -3 22 C-2.67 15.73 -2.34 9.46 -2 3 C-1.34 3 -0.68 3 0 3 C0 2.01 0 1.02 0 0 Z " fill="#020101" transform="translate(951,392)"/>
<path d="M0 0 C0.33 0.66 0.66 1.32 1 2 C1.33 1.34 1.66 0.68 2 0 C2.99 0 3.98 0 5 0 C4.1875 2.4375 4.1875 2.4375 3 5 C2.01 5.33 1.02 5.66 0 6 C-0.6837045 7.32467746 -1.34964186 8.65863633 -2 10 C-2.99 10.66 -3.98 11.32 -5 12 C-5.99 11.34 -6.98 10.68 -8 10 C-5.36 6.7 -2.72 3.4 0 0 Z " fill="#1C1719" transform="translate(876,971)"/>
<path d="M0 0 C5.99295775 5.83098592 5.99295775 5.83098592 8 9 C8 9.99 8 10.98 8 12 C4.71245489 11.42110619 3.06327505 10.45171589 0.75 8.0625 C0.22921875 7.53785156 -0.2915625 7.01320313 -0.828125 6.47265625 C-2 5 -2 5 -2 3 C-1.34 3 -0.68 3 0 3 C0 2.01 0 1.02 0 0 Z " fill="#24171A" transform="translate(1091,508)"/>
<path d="M0 0 C6.04104342 4.591193 9.43170323 9.3453316 13 16 C13.42796875 16.76441406 13.8559375 17.52882813 14.296875 18.31640625 C15.29046756 20.16408008 16.15736006 22.07878094 17 24 C16.67 24.99 16.34 25.98 16 27 C15.43152344 25.94941406 14.86304688 24.89882813 14.27734375 23.81640625 C10.36022495 16.66666409 6.524949 9.83882898 1.21484375 3.6015625 C0 2 0 2 0 0 Z " fill="#E7E9EF" transform="translate(419,342)"/>
<path d="M0 0 C0.66 0.33 1.32 0.66 2 1 C1.35294153 4.33425426 0.09780203 6.74789909 -1.6875 9.625 C-2.21988281 10.49125 -2.75226563 11.3575 -3.30078125 12.25 C-4.14189453 13.61125 -4.14189453 13.61125 -5 15 C-6.12761918 16.873426 -7.2527453 18.74835555 -8.375 20.625 C-9.6875 22.8125 -9.6875 22.8125 -11 25 C-11.66 24.67 -12.32 24.34 -13 24 C-12.34644531 22.90945313 -12.34644531 22.90945313 -11.6796875 21.796875 C-7.46136804 14.67503694 -3.60602455 7.44980897 0 0 Z " fill="#E5E3EA" transform="translate(1054,429)"/>
<path d="M0 0 C0.66 0.33 1.32 0.66 2 1 C1.02546875 1.77923828 1.02546875 1.77923828 0.03125 2.57421875 C-0.8040625 3.27160156 -1.639375 3.96898437 -2.5 4.6875 C-3.75296875 5.71423828 -3.75296875 5.71423828 -5.03125 6.76171875 C-7.25674382 8.83783133 -7.25674382 8.83783133 -7.1953125 11.65625 C-7.13085938 12.4296875 -7.06640625 13.203125 -7 14 C-8.375 15.8125 -8.375 15.8125 -10 17 C-10.66 17 -11.32 17 -12 17 C-12.375 14.3671875 -12.375 14.3671875 -12 11 C-10.03045852 8.75495719 -8.26691427 7.0038839 -6 5.125 C-5.42765625 4.62742187 -4.8553125 4.12984375 -4.265625 3.6171875 C-2.85681475 2.39621862 -1.43007827 1.19598808 0 0 Z " fill="#20181E" transform="translate(330,503)"/>
<path d="M0 0 C0.99 0.33 1.98 0.66 3 1 C0.23793154 5.56194093 -2.55131413 9.91266859 -6 14 C-6.28571429 6.57142857 -6.28571429 6.57142857 -4 3 C-3.34 3 -2.68 3 -2 3 C-2 2.34 -2 1.68 -2 1 C-1.34 0.67 -0.68 0.34 0 0 Z " fill="#E5EBEF" transform="translate(1052,453)"/>
<path d="M0 0 C4.83256305 0.41421969 6.82679218 2.46413986 10 6 C7.525 7.485 7.525 7.485 5 9 C4.16094435 7.87926138 3.32892169 6.75325453 2.5 5.625 C2.0359375 4.99851562 1.571875 4.37203125 1.09375 3.7265625 C0 2 0 2 0 0 Z " fill="#221B1E" transform="translate(856,754)"/>
<path d="M0 0 C3.76706644 0.52320367 6.27388801 1.27388801 9 4 C9 5.32 9 6.64 9 8 C8.01 8.33 7.02 8.66 6 9 C4.99406757 7.8803014 3.9954151 6.7540588 3 5.625 C2.443125 4.99851562 1.88625 4.37203125 1.3125 3.7265625 C0 2 0 2 0 0 Z " fill="#140C0D" transform="translate(1082,503)"/>
<path d="M0 0 C0.66 0 1.32 0 2 0 C2.75 2.1875 2.75 2.1875 3 5 C1.3125 7.8125 1.3125 7.8125 -1 10 C-2.32 10 -3.64 10 -5 10 C-3.66749209 6.4124787 -2.169283 3.1635377 0 0 Z " fill="#1C1619" transform="translate(1050,460)"/>
<path d="M0 0 C0.99 0 1.98 0 3 0 C1.36041242 5.23272633 -0.38952035 10.15196636 -3 15 C-3.66 14.67 -4.32 14.34 -5 14 C-5 13.34 -5 12.68 -5 12 C-4.34 12 -3.68 12 -3 12 C-2.95101563 11.30132812 -2.90203125 10.60265625 -2.8515625 9.8828125 C-2.77679687 8.97273438 -2.70203125 8.06265625 -2.625 7.125 C-2.55539062 6.22007812 -2.48578125 5.31515625 -2.4140625 4.3828125 C-2 2 -2 2 0 0 Z " fill="#E7EAED" transform="translate(1068,424)"/>
<path d="M0 0 C0.33 1.32 0.66 2.64 1 4 C-4.94 8.95 -4.94 8.95 -11 14 C-11.66 13.67 -12.32 13.34 -13 13 C-8.66666667 8.66666667 -4.33333333 4.33333333 0 0 Z " fill="#4E4041" transform="translate(854,996)"/>
<path d="M0 0 C2.97 0.99 5.94 1.98 9 3 C9 3.66 9 4.32 9 5 C2.4 4.67 -4.2 4.34 -11 4 C-11 3.67 -11 3.34 -11 3 C-7.37 3 -3.74 3 0 3 C0 2.01 0 1.02 0 0 Z " fill="#4F494B" transform="translate(743,997)"/>
<path d="M0 0 C0.33 0.99 0.66 1.98 1 3 C-0.26691507 3.67408308 -1.53870749 4.33900497 -2.8125 5 C-3.52019531 5.37125 -4.22789062 5.7425 -4.95703125 6.125 C-7 7 -7 7 -10 7 C-10 6.34 -10 5.68 -10 5 C-8.3203125 3.7109375 -8.3203125 3.7109375 -6.125 2.375 C-5.40570312 1.92898438 -4.68640625 1.48296875 -3.9453125 1.0234375 C-2 0 -2 0 0 0 Z " fill="#332728" transform="translate(675,718)"/>
<path d="M0 0 C0 2.71929057 -0.05620165 4.4832044 -1 7 C-3.0625 8.75 -3.0625 8.75 -5 10 C-5.66 9.67 -6.32 9.34 -7 9 C-5.03681826 5.46627288 -2.95929119 2.75520215 0 0 Z " fill="#2E2121" transform="translate(861,989)"/>
<path d="M0 0 C3.3 0.66 6.6 1.32 10 2 C5.25294723 5.16470185 1.68228705 5.10927475 -4 5 C-4 4.67 -4 4.34 -4 4 C-2.35 3.67 -0.7 3.34 1 3 C0.67 2.01 0.34 1.02 0 0 Z " fill="#332A2B" transform="translate(730,713)"/>
<path d="M0 0 C0.66 0.33 1.32 0.66 2 1 C1.25 3.4375 1.25 3.4375 0 6 C-2 6.9375 -2 6.9375 -4 7 C-4.66 6.34 -5.32 5.68 -6 5 C-4.02 3.35 -2.04 1.7 0 0 Z " fill="#DFDFDB" transform="translate(346,498)"/>
<path d="M0 0 C0.66 1.32 1.32 2.64 2 4 C-0.64 4.33 -3.28 4.66 -6 5 C-2.25 1.125 -2.25 1.125 0 0 Z " fill="#281D20" transform="translate(690,998)"/>
<path d="M0 0 C0.99 0 1.98 0 3 0 C2.6875 1.875 2.6875 1.875 2 4 C1.01 4.66 0.02 5.32 -1 6 C-1.625 4.125 -1.625 4.125 -2 2 C-1.34 1.34 -0.68 0.68 0 0 Z " fill="#080101" transform="translate(324,510)"/>
<path d="M0 0 C0.66 0.66 1.32 1.32 2 2 C0.38405168 4.04119788 -1.2856382 6.04072937 -3 8 C-3.66 8 -4.32 8 -5 8 C-4.67 6.68 -4.34 5.36 -4 4 C-2.68 3.67 -1.36 3.34 0 3 C0 2.01 0 1.02 0 0 Z " fill="#DADEE4" transform="translate(1044,466)"/>
<path d="M0 0 C1.98 0.495 1.98 0.495 4 1 C3.67 1.66 3.34 2.32 3 3 C3.99 3.33 4.98 3.66 6 4 C3.69 4 1.38 4 -1 4 C-0.67 2.68 -0.34 1.36 0 0 Z " fill="#0E0809" transform="translate(692,997)"/>
<path d="M0 0 C4.75 1.875 4.75 1.875 7 3 C7 3.66 7 4.32 7 5 C4.36 4.34 1.72 3.68 -1 3 C-0.67 2.01 -0.34 1.02 0 0 Z " fill="#322D30" transform="translate(748,719)"/>
<path d="M0 0 C0 3 0 3 -2.5 5.6875 C-3.325 6.450625 -4.15 7.21375 -5 8 C-5.66 7.67 -6.32 7.34 -7 7 C-2.25 1.125 -2.25 1.125 0 0 Z " fill="#D7D7D2" transform="translate(1063,452)"/>
<path d="M0 0 C3.26460973 1.80412643 4.88929795 2.83394693 7 6 C6.01 6.33 5.02 6.66 4 7 C3.34 6.34 2.68 5.68 2 5 C2 4.01 2 3.02 2 2 C1.34 2 0.68 2 0 2 C0 1.34 0 0.68 0 0 Z " fill="#291B21" transform="translate(870,764)"/>
<path d="M0 0 C0.66 0.33 1.32 0.66 2 1 C1.34 2.98 0.68 4.96 0 7 C-0.66 7 -1.32 7 -2 7 C-2 7.66 -2 8.32 -2 9 C-2.66 8.67 -3.32 8.34 -4 8 C-2.68 5.36 -1.36 2.72 0 0 Z " fill="#D8DCD8" transform="translate(1072,437)"/>
<path d="M0 0 C0.33 0.99 0.66 1.98 1 3 C-0.65 4.65 -2.3 6.3 -4 8 C-4.66 7.67 -5.32 7.34 -6 7 C-4.02 4.69 -2.04 2.38 0 0 Z " fill="#D7D8D4" transform="translate(872,982)"/>
<path d="M0 0 C0.66 0.66 1.32 1.32 2 2 C0.71034824 3.37562854 -0.62689293 4.70766393 -2 6 C-2.66 6 -3.32 6 -4 6 C-4 5.01 -4 4.02 -4 3 C-2 1.3125 -2 1.3125 0 0 Z " fill="#060002" transform="translate(1059,450)"/>
<path d="M0 0 C0.66 0.99 1.32 1.98 2 3 C1.01 3.33 0.02 3.66 -1 4 C-1 4.66 -1 5.32 -1 6 C-1.66 6 -2.32 6 -3 6 C-3 6.66 -3 7.32 -3 8 C-3.66 7.67 -4.32 7.34 -5 7 C-3.35 4.69 -1.7 2.38 0 0 Z " fill="#DBDDD9" transform="translate(349,344)"/>
<path d="M0 0 C0.66 0.33 1.32 0.66 2 1 C0.02 3.31 -1.96 5.62 -4 8 C-4.66 7.67 -5.32 7.34 -6 7 C-4.02 4.69 -2.04 2.38 0 0 Z " fill="#D0CECC" transform="translate(986,332)"/>
</svg>
