<svg xmlns="http://www.w3.org/2000/svg" viewBox="-1 -1 22.8 22.8" fill="none" stroke="currentColor" stroke-linecap="round" stroke-linejoin="round" id="Apps--Streamline-Tabler" height="22.8" width="22.8">
  <desc>
    Apps Streamline Icon: https://streamlinehq.com
  </desc>
  <path d="M3.466666666666667 4.333333333333334a0.8666666666666667 0.8666666666666667 0 0 1 0.8666666666666667 -0.8666666666666667h3.466666666666667a0.8666666666666667 0.8666666666666667 0 0 1 0.8666666666666667 0.8666666666666667v3.466666666666667a0.8666666666666667 0.8666666666666667 0 0 1 -0.8666666666666667 0.8666666666666667H4.333333333333334a0.8666666666666667 0.8666666666666667 0 0 1 -0.8666666666666667 -0.8666666666666667z" stroke-width="2"></path>
  <path d="M3.466666666666667 13a0.8666666666666667 0.8666666666666667 0 0 1 0.8666666666666667 -0.8666666666666667h3.466666666666667a0.8666666666666667 0.8666666666666667 0 0 1 0.8666666666666667 0.8666666666666667v3.466666666666667a0.8666666666666667 0.8666666666666667 0 0 1 -0.8666666666666667 0.8666666666666667H4.333333333333334a0.8666666666666667 0.8666666666666667 0 0 1 -0.8666666666666667 -0.8666666666666667z" stroke-width="2"></path>
  <path d="M12.133333333333333 13a0.8666666666666667 0.8666666666666667 0 0 1 0.8666666666666667 -0.8666666666666667h3.466666666666667a0.8666666666666667 0.8666666666666667 0 0 1 0.8666666666666667 0.8666666666666667v3.466666666666667a0.8666666666666667 0.8666666666666667 0 0 1 -0.8666666666666667 0.8666666666666667h-3.466666666666667a0.8666666666666667 0.8666666666666667 0 0 1 -0.8666666666666667 -0.8666666666666667z" stroke-width="2"></path>
  <path d="m12.133333333333333 6.066666666666666 5.2 0" stroke-width="2"></path>
  <path d="m14.733333333333334 3.466666666666667 0 5.2" stroke-width="2"></path>
</svg>