<svg role="img" viewBox="0 0 1024 1024" xmlns="http://www.w3.org/2000/svg" id="Greasyfork--Streamline-Simple-Icons" height="1024" width="1024">
  <desc>
    Greasyfork Streamline Icon: https://streamlinehq.com
  </desc>
  <title>Greasy Fork</title>
  <path d="M251.30666666666664 95.01866666666666a11.946666666666667 11.946666666666667 0 0 1 11.349333333333334 3.2426666666666666l216.0213333333333 215.97866666666667c23.04 23.04 21.717333333333332 70.48533333333333 -1.3226666666666667 93.52533333333334l374.22933333333333 374.1866666666666c57.856 57.81333333333333 -15.36 132.13866666666667 -73.81333333333333 73.728l-374.272 -374.1866666666666c-23.04 23.04 -70.44266666666667 24.362666666666662 -93.48266666666666 1.3226666666666667l-216.0213333333333 -215.89333333333332c-12.970666666666666 -12.970666666666666 12.970666666666666 -38.86933333333333 25.941333333333333 -25.941333333333333l158.464 158.42133333333334L323.84 354.00533333333334 165.33333333333331 195.49866666666665c-12.970666666666666 -12.970666666666666 12.970666666666666 -38.86933333333333 25.898666666666664 -25.898666666666664l158.50666666666666 158.464 45.52533333333333 -45.48266666666667L236.75733333333335 124.16c-9.728 -9.728 2.432 -26.709333333333333 14.592 -29.141333333333336ZM512 0C229.29066666666665 0 0 229.33333333333331 0 512s229.29066666666665 512 512 512c282.66666666666663 0 512 -229.33333333333331 512 -512S794.6666666666666 0 512 0Z" fill="#000000" stroke-width="42.6667"></path>
</svg>